<?xml version="1.0" encoding="UTF-8"?>
<svg id="Layer_2" data-name="Layer 2" xmlns="http://www.w3.org/2000/svg" viewBox="0 0 41.46 59.56">
  <defs>
    <style>
      .cls-1 {
        fill: #00aeef;
      }

      .cls-2 {
        fill: #009444;
      }

      .cls-3 {
        fill: #39b54a;
      }
    </style>
  </defs>
  <g id="Layer_1-2" data-name="Layer 1">
    <g>
      <path class="cls-3" d="M.8,54.93c.02,2.58,2.55,4.65,5.64,4.62s5.58-2.14,5.56-4.72l-.34-39.07c-.12-2.44-2.48-4.4-5.44-4.46-3.09-.06-5.77,2-5.75,4.56,0,.1.33,39.07.33,39.07Z"/>
      <path class="cls-1" d="M2.41,12.61c-2.17.82-3.03,3.83-1.94,6.72,1.09,2.89,3.74,4.57,5.9,3.75l32.8-12.42c2.01-.86,2.85-3.69,1.87-6.49-1.02-2.92-3.69-4.79-5.83-3.98-.08.03-32.8,12.42-32.8,12.42Z"/>
      <path class="cls-2" d="M4.89,32.99c-1.84.7-2.44,3.6-1.35,6.49s3.47,4.67,5.31,3.97l27.83-10.54c1.7-.75,2.29-3.48,1.3-6.27-1.03-2.91-3.44-4.88-5.26-4.19-.07.03-27.83,10.54-27.83,10.54Z"/>
    </g>
  </g>
</svg>